<?xml version="1.0" standalone="no"?>
<svg xmlns="http://www.w3.org/2000/svg" viewBox="0 0 258.144 29.38" width="258.144" height="29.38"><g fill="#deab26" color="#deab26" transform="translate(0, 0) scale(0.29)"><svg width="100.0" height="100.0" x="0.0" y="0.0" viewBox="0 0 100 100"><g><g><path d="M12.1435,47.996C12.1435,43.309 15.9565,39.496 20.6435,39.496L24.2265,39.496L24.2265,56.496L20.6435,56.496C15.9565,56.496 12.1435,52.683 12.1435,47.996M62.1285,30.357L62.1285,45.624C58.5545,44.923 55.8505,41.767 55.8505,37.991C55.8505,34.215 58.5545,31.059 62.1285,30.357M33.4765,56.496L27.2265,56.496L27.2265,39.496L33.4765,39.496L33.4765,56.496ZM42.7265,56.496L36.4765,56.496L36.4765,39.496L42.7265,39.496L42.7265,56.496ZM84.0235,56.496L77.3175,56.496L77.3175,54.861L78.7645,54.861C79.5925,54.861 80.2645,54.189 80.2645,53.361C80.2645,52.533 79.5925,51.861 78.7645,51.861L72.8725,51.861C72.0445,51.861 71.3725,52.533 71.3725,53.361C71.3725,54.189 72.0445,54.861 72.8725,54.861L74.3175,54.861L74.3175,56.496L66.8615,56.496L66.8615,54.861L68.3075,54.861C69.1355,54.861 69.8075,54.189 69.8075,53.361C69.8075,52.533 69.1355,51.861 68.3075,51.861L62.4155,51.861C61.5875,51.861 60.9155,52.533 60.9155,53.361C60.9155,54.189 61.5875,54.861 62.4155,54.861L63.8615,54.861L63.8615,56.496L56.4045,56.496L56.4045,54.861L57.8505,54.861C58.6795,54.861 59.3505,54.189 59.3505,53.361C59.3505,52.533 58.6795,51.861 57.8505,51.861L51.9585,51.861C51.1295,51.861 50.4585,52.533 50.4585,53.361C50.4585,54.189 51.1295,54.861 51.9585,54.861L53.4045,54.861L53.4045,56.496L45.7265,56.496L45.7265,39.496L52.9675,39.496C53.7035,44.728 58.1975,48.769 63.6285,48.769C64.4565,48.769 65.1285,48.098 65.1285,47.269L65.1285,28.712C65.1285,27.884 64.4565,27.212 63.6285,27.212C58.1935,27.212 53.6975,31.259 52.9665,36.496L20.6435,36.496C14.3025,36.496 9.1435,41.655 9.1435,47.996C9.1435,54.337 14.3025,59.496 20.6435,59.496L84.0235,59.496C86.1375,59.496 87.8565,61.216 87.8565,63.329C87.8565,65.443 86.1375,67.163 84.0235,67.163L40.8755,67.163L40.8755,66.038C40.8755,65.21 40.2045,64.538 39.3755,64.538C38.5475,64.538 37.8755,65.21 37.8755,66.038L37.8755,71.288C37.8755,72.116 38.5475,72.788 39.3755,72.788C40.2045,72.788 40.8755,72.116 40.8755,71.288L40.8755,70.163L84.0235,70.163C87.7915,70.163 90.8565,67.098 90.8565,63.329C90.8565,59.561 87.7915,56.496 84.0235,56.496" style="" fill="currentColor" fill-rule="nonzero"></path></g></g></svg></g><line x1="41" y1="1" x2="41" y2="28" stroke="#0f1c93" stroke-linecap="round"></line><path fill="#0f1c93" fill-rule="nonzero" d="M16.13 0.05L16.92 0.86Q16.37 1.63 15.53 1.96Q14.69 2.28 13.82 2.33L13.82 2.33Q14.18 2.81 14.60 3.49Q15.02 4.18 15.38 5.04Q15.74 5.90 15.97 6.95Q16.20 7.99 16.20 9.22L16.20 9.22Q16.20 11.02 15.62 12.56Q15.05 14.11 13.98 15.24Q12.91 16.37 11.42 17.02Q9.94 17.66 8.11 17.66L8.11 17.66Q6.26 17.66 4.78 17.02Q3.29 16.37 2.22 15.23Q1.15 14.09 0.58 12.55Q0 11.02 0 9.22L0 9.22Q0 7.42 0.58 5.87Q1.15 4.32 2.22 3.19Q3.29 2.06 4.78 1.42Q6.26 0.77 8.11 0.77L8.11 0.77Q9.62 0.77 10.88 0.89Q12.14 1.01 13.27 1.01L13.27 1.01Q14.23 1.01 14.93 0.77Q15.62 0.53 16.13 0.05L16.13 0.05ZM14.76 9.22L14.76 9.22Q14.76 7.70 14.40 6.52Q14.04 5.33 13.57 4.45Q13.10 3.58 12.65 3.04Q12.19 2.50 12 2.30L12 2.30Q11.11 2.26 10.14 2.17Q9.17 2.09 8.09 2.09L8.09 2.09Q6.60 2.09 5.38 2.60Q4.15 3.12 3.29 4.07Q2.42 5.02 1.94 6.32Q1.46 7.63 1.46 9.22L1.46 9.22Q1.46 10.80 1.94 12.11Q2.42 13.42 3.30 14.35Q4.18 15.29 5.40 15.82Q6.62 16.34 8.11 16.34L8.11 16.34Q9.60 16.34 10.82 15.83Q12.05 15.31 12.92 14.36Q13.80 13.42 14.28 12.11Q14.76 10.80 14.76 9.22ZM25.90 5.42L25.90 6.67Q25.68 6.65 25.42 6.60L25.42 6.60Q25.20 6.55 24.92 6.53Q24.65 6.50 24.31 6.50L24.31 6.50Q23.33 6.50 22.54 7.13Q21.74 7.75 21.12 8.86L21.12 8.86L21.12 8.95L21.12 17.42L19.80 17.42L19.80 8.95Q19.80 7.99 19.56 7.30Q19.32 6.60 18.84 6.10L18.84 6.10L19.66 5.30Q20.21 5.71 20.52 6.25Q20.83 6.79 20.98 7.42L20.98 7.42Q21.60 6.31 22.44 5.77Q23.28 5.23 24.48 5.23L24.48 5.23Q24.74 5.23 25.01 5.26Q25.27 5.28 25.46 5.33L25.46 5.33Q25.70 5.38 25.90 5.42L25.90 5.42ZM27.70 6.10L28.51 5.30Q28.97 5.64 29.24 6.06Q29.52 6.48 29.69 6.96Q29.86 7.44 29.92 7.94Q29.98 8.45 29.98 8.95L29.98 8.95L29.98 17.42L28.66 17.42L28.66 8.95Q28.66 7.99 28.42 7.30Q28.18 6.60 27.70 6.10L27.70 6.10ZM28.01 1.54L28.01 1.54Q28.01 1.06 28.33 0.73Q28.66 0.41 29.11 0.41L29.11 0.41Q29.59 0.41 29.92 0.73Q30.24 1.06 30.24 1.54L30.24 1.54Q30.24 1.99 29.92 2.32Q29.59 2.64 29.11 2.64L29.11 2.64Q28.66 2.64 28.33 2.32Q28.01 1.99 28.01 1.54ZM32.64 14.76L32.64 14.76Q32.64 14.14 32.92 13.64Q33.19 13.15 33.66 12.82Q34.13 12.48 34.78 12.29Q35.42 12.10 36.19 12.07L36.19 12.07Q35.33 11.02 35.33 9.43L35.33 9.43Q35.33 8.45 35.66 7.67Q36 6.89 36.60 6.35Q37.20 5.81 38.03 5.52Q38.86 5.23 39.84 5.23L39.84 5.23Q40.30 5.23 40.70 5.29Q41.11 5.35 41.50 5.47L41.50 5.47L45.46 5.47L45.46 6.70L43.27 6.55Q43.78 7.08 44.06 7.80Q44.35 8.52 44.35 9.43L44.35 9.43Q44.35 10.42 44.02 11.18Q43.68 11.95 43.08 12.49Q42.48 13.03 41.65 13.32Q40.82 13.61 39.84 13.61L39.84 13.61Q38.50 13.61 37.49 13.10L37.49 13.10Q37.30 13.08 37.10 13.07Q36.91 13.06 36.70 13.06L36.70 13.06Q36.22 13.06 35.74 13.13Q35.26 13.20 34.86 13.39Q34.46 13.58 34.21 13.90Q33.96 14.21 33.96 14.69L33.96 14.69Q33.96 15.17 34.18 15.47Q34.39 15.77 34.78 15.92Q35.16 16.08 35.70 16.13Q36.24 16.18 36.86 16.18L36.86 16.18Q37.61 16.18 38.45 16.14Q39.29 16.10 40.18 16.10L40.18 16.10Q41.18 16.10 42.18 16.24Q43.18 16.37 43.97 16.74Q44.76 17.11 45.24 17.81Q45.72 18.50 45.72 19.61L45.72 19.61Q45.72 20.76 45.19 21.52Q44.66 22.27 43.82 22.74Q42.98 23.21 41.93 23.40Q40.87 23.59 39.82 23.59L39.82 23.59Q38.76 23.59 37.74 23.40Q36.72 23.21 35.90 22.74Q35.09 22.27 34.58 21.50Q34.08 20.74 34.08 19.61L34.08 19.61Q34.08 18.84 34.12 18.12Q34.15 17.40 34.20 16.99L34.20 16.99Q33.50 16.70 33.07 16.18Q32.64 15.65 32.64 14.76ZM37.25 17.45L37.25 17.45Q36.79 17.45 36.35 17.42Q35.90 17.40 35.47 17.33L35.47 17.33Q35.45 17.52 35.42 18.10Q35.40 18.67 35.40 19.61L35.40 19.61Q35.40 20.93 36.52 21.64Q37.63 22.34 39.82 22.34L39.82 22.34Q40.61 22.34 41.41 22.24Q42.22 22.13 42.89 21.82Q43.56 21.50 43.98 20.98Q44.40 20.45 44.40 19.61L44.40 19.61Q44.40 18.89 44.03 18.44Q43.66 18 43.06 17.77Q42.46 17.54 41.66 17.46Q40.87 17.38 40.06 17.38L40.06 17.38Q39.46 17.38 38.74 17.41Q38.02 17.45 37.25 17.45ZM39.82 6.48L39.82 6.48Q38.35 6.48 37.50 7.27Q36.65 8.06 36.65 9.41L36.65 9.41Q36.65 10.75 37.50 11.54Q38.35 12.34 39.82 12.34L39.82 12.34Q41.26 12.34 42.12 11.54Q42.98 10.75 42.98 9.41L42.98 9.41Q42.98 8.06 42.12 7.27Q41.26 6.48 39.82 6.48ZM47.52 6.10L48.34 5.30Q48.79 5.64 49.07 6.06Q49.34 6.48 49.51 6.96Q49.68 7.44 49.74 7.94Q49.80 8.45 49.80 8.95L49.80 8.95L49.80 17.42L48.48 17.42L48.48 8.95Q48.48 7.99 48.24 7.30Q48 6.60 47.52 6.10L47.52 6.10ZM47.83 1.54L47.83 1.54Q47.83 1.06 48.16 0.73Q48.48 0.41 48.94 0.41L48.94 0.41Q49.42 0.41 49.74 0.73Q50.06 1.06 50.06 1.54L50.06 1.54Q50.06 1.99 49.74 2.32Q49.42 2.64 48.94 2.64L48.94 2.64Q48.48 2.64 48.16 2.32Q47.83 1.99 47.83 1.54ZM63.67 17.42L62.40 17.42Q62.02 16.70 61.90 15.80Q61.78 14.90 61.78 14.21L61.78 14.21Q61.78 13.63 61.80 13.13Q61.82 12.62 61.86 12.06Q61.90 11.50 61.93 10.85Q61.97 10.20 61.97 9.36L61.97 9.36Q61.97 7.87 61.30 7.18Q60.62 6.48 59.26 6.48L59.26 6.48Q57.96 6.48 57.07 7.12Q56.18 7.75 55.34 8.90L55.34 8.90L55.34 8.95L55.34 17.42L54.02 17.42L54.02 8.95Q54.02 7.99 53.78 7.30Q53.54 6.60 53.06 6.10L53.06 6.10L53.88 5.30Q54.46 5.71 54.77 6.30Q55.08 6.89 55.20 7.51L55.20 7.51Q55.99 6.36 57.01 5.80Q58.03 5.23 59.26 5.23L59.26 5.23Q61.37 5.23 62.33 6.24Q63.29 7.25 63.29 9.10L63.29 9.10Q63.29 9.96 63.25 10.67Q63.22 11.38 63.18 12Q63.14 12.62 63.12 13.20Q63.10 13.78 63.10 14.35L63.10 14.35Q63.10 15.14 63.22 15.86Q63.34 16.58 63.67 17.42L63.67 17.42ZM69.79 17.66L69.79 17.66Q68.98 17.66 68.27 17.45Q67.56 17.23 67.04 16.80Q66.53 16.37 66.24 15.72Q65.95 15.07 65.95 14.23L65.95 14.23Q65.95 13.22 66.40 12.55Q66.84 11.88 67.56 11.46Q68.28 11.04 69.18 10.87Q70.08 10.70 71.02 10.70L71.02 10.70L73.34 10.70L73.34 9.36Q73.34 7.87 72.74 7.18Q72.14 6.48 70.85 6.48L70.85 6.48Q69.89 6.48 68.90 6.89Q67.92 7.30 67.30 7.78L67.30 7.78L66.65 6.77Q67.34 6.14 68.48 5.69Q69.62 5.23 70.85 5.23L70.85 5.23Q72.86 5.23 73.76 6.25Q74.66 7.27 74.66 9.10L74.66 9.10L74.66 13.97Q74.66 15.82 75.60 16.82L75.60 16.82L74.78 17.62Q74.28 17.23 73.99 16.74Q73.70 16.25 73.54 15.70L73.54 15.70Q73.08 16.61 72.14 17.14Q71.21 17.66 69.79 17.66ZM69.79 16.42L69.79 16.42Q70.51 16.42 71.14 16.21Q71.76 16.01 72.25 15.62Q72.74 15.24 73.03 14.66Q73.32 14.09 73.34 13.34L73.34 13.34L73.34 11.93L71.02 11.93Q70.34 11.93 69.68 12.01Q69.02 12.10 68.50 12.35Q67.97 12.60 67.64 13.06Q67.32 13.51 67.32 14.23L67.32 14.23Q67.32 15.43 67.97 15.92Q68.62 16.42 69.79 16.42ZM78.84 13.99L78.84 0L80.16 0L80.16 13.99Q80.16 14.95 80.40 15.65Q80.64 16.34 81.12 16.85L81.12 16.85L80.30 17.64Q79.85 17.33 79.56 16.90Q79.27 16.46 79.12 15.98Q78.96 15.50 78.90 15Q78.84 14.50 78.84 13.99L78.84 13.99ZM103.18 1.01L103.18 2.38L97.44 2.38L97.44 17.42L95.98 17.42L95.98 2.38L90.24 2.38L90.24 1.01L103.18 1.01ZM110.95 5.42L110.95 6.67Q110.74 6.65 110.47 6.60L110.47 6.60Q110.26 6.55 109.98 6.53Q109.70 6.50 109.37 6.50L109.37 6.50Q108.38 6.50 107.59 7.13Q106.80 7.75 106.18 8.86L106.18 8.86L106.18 8.95L106.18 17.42L104.86 17.42L104.86 8.95Q104.86 7.99 104.62 7.30Q104.38 6.60 103.90 6.10L103.90 6.10L104.71 5.30Q105.26 5.71 105.58 6.25Q105.89 6.79 106.03 7.42L106.03 7.42Q106.66 6.31 107.50 5.77Q108.34 5.23 109.54 5.23L109.54 5.23Q109.80 5.23 110.06 5.26Q110.33 5.28 110.52 5.33L110.52 5.33Q110.76 5.38 110.95 5.42L110.95 5.42ZM118.13 17.66L118.13 17.66Q116.78 17.66 115.68 17.21Q114.58 16.75 113.80 15.92Q113.02 15.10 112.58 13.97Q112.15 12.84 112.15 11.50L112.15 11.50Q112.15 10.15 112.58 9.01Q113.02 7.87 113.80 7.03Q114.58 6.19 115.68 5.71Q116.78 5.23 118.13 5.23L118.13 5.23Q119.47 5.23 120.56 5.70Q121.66 6.17 122.44 7.00Q123.22 7.82 123.65 8.96Q124.08 10.10 124.08 11.42L124.08 11.42Q124.08 12.77 123.65 13.92Q123.22 15.07 122.44 15.90Q121.66 16.73 120.56 17.20Q119.47 17.66 118.13 17.66ZM118.13 6.48L118.13 6.48Q117.07 6.48 116.23 6.84Q115.39 7.20 114.78 7.85Q114.17 8.50 113.84 9.41Q113.52 10.32 113.52 11.42L113.52 11.42Q113.52 12.55 113.84 13.48Q114.17 14.40 114.78 15.05Q115.39 15.70 116.23 16.06Q117.07 16.42 118.13 16.42L118.13 16.42Q119.16 16.42 120.01 16.04Q120.86 15.67 121.46 15.01Q122.06 14.35 122.39 13.43Q122.71 12.50 122.71 11.38L122.71 11.38Q122.71 10.27 122.39 9.37Q122.06 8.47 121.46 7.82Q120.86 7.18 120.01 6.83Q119.16 6.48 118.13 6.48ZM135.96 17.42L134.64 17.42L134.64 9.36Q134.64 7.85 134.00 7.16Q133.37 6.48 132.19 6.48L132.19 6.48Q131.71 6.48 131.21 6.64Q130.70 6.79 130.24 7.10Q129.77 7.42 129.38 7.85Q129.00 8.28 128.76 8.83L128.76 8.83L128.76 8.95L128.76 17.42L127.44 17.42L127.44 8.95Q127.44 7.99 127.20 7.30Q126.96 6.60 126.48 6.10L126.48 6.10L127.30 5.30Q127.85 5.71 128.15 6.25Q128.45 6.79 128.59 7.42L128.59 7.42Q129.24 6.31 130.21 5.77Q131.18 5.23 132.34 5.23L132.34 5.23Q133.51 5.23 134.40 5.78Q135.29 6.34 135.70 7.46L135.70 7.46Q136.39 6.31 137.40 5.77Q138.41 5.23 139.39 5.23L139.39 5.23Q141.12 5.23 142.16 6.24Q143.21 7.25 143.21 9.10L143.21 9.10Q143.21 9.96 143.17 10.67Q143.14 11.38 143.10 12Q143.06 12.62 143.03 13.20Q142.99 13.78 142.99 14.35L142.99 14.35Q142.99 15.14 143.11 15.86Q143.23 16.58 143.57 17.42L143.57 17.42L142.30 17.42Q141.91 16.70 141.79 15.80Q141.67 14.90 141.67 14.21L141.67 14.21Q141.67 13.63 141.70 13.13Q141.72 12.62 141.76 12.06Q141.79 11.50 141.83 10.85Q141.86 10.20 141.86 9.36L141.86 9.36Q141.86 7.87 141.25 7.18Q140.64 6.48 139.42 6.48L139.42 6.48Q137.21 6.48 135.96 8.86L135.96 8.86L135.96 9.10L135.96 17.42ZM151.85 5.23L151.85 5.23Q153.07 5.23 154.02 5.71Q154.97 6.19 155.63 7.03Q156.29 7.87 156.62 8.99Q156.96 10.10 156.96 11.40L156.96 11.40Q156.96 12.74 156.56 13.88Q156.17 15.02 155.44 15.86Q154.70 16.70 153.67 17.18Q152.64 17.66 151.37 17.66L151.37 17.66Q150.29 17.66 149.46 17.59Q148.63 17.52 148.08 17.42L148.08 17.42Q147.43 17.33 146.93 17.18L146.93 17.18L146.93 0L148.25 0L148.25 7.03Q148.80 6.19 149.74 5.71Q150.67 5.23 151.85 5.23ZM151.85 6.48L151.85 6.48Q151.25 6.48 150.65 6.67Q150.05 6.86 149.54 7.25Q149.04 7.63 148.68 8.21Q148.32 8.78 148.25 9.55L148.25 9.55L148.25 16.20Q148.68 16.25 149.52 16.33Q150.36 16.42 151.34 16.42L151.34 16.42Q152.30 16.42 153.08 16.06Q153.86 15.70 154.43 15.05Q154.99 14.40 155.29 13.49Q155.59 12.58 155.59 11.47L155.59 11.47Q155.59 10.51 155.35 9.60Q155.11 8.69 154.64 8.00Q154.18 7.32 153.48 6.90Q152.78 6.48 151.85 6.48ZM165.34 17.66L165.34 17.66Q163.99 17.66 162.89 17.21Q161.78 16.75 161.00 15.92Q160.22 15.10 159.79 13.97Q159.36 12.84 159.36 11.50L159.36 11.50Q159.36 10.15 159.79 9.01Q160.22 7.87 161.00 7.03Q161.78 6.19 162.89 5.71Q163.99 5.23 165.34 5.23L165.34 5.23Q166.68 5.23 167.77 5.70Q168.86 6.17 169.64 7.00Q170.42 7.82 170.86 8.96Q171.29 10.10 171.29 11.42L171.29 11.42Q171.29 12.77 170.86 13.92Q170.42 15.07 169.64 15.90Q168.86 16.73 167.77 17.20Q166.68 17.66 165.34 17.66ZM165.34 6.48L165.34 6.48Q164.28 6.48 163.44 6.84Q162.60 7.20 161.99 7.85Q161.38 8.50 161.05 9.41Q160.73 10.32 160.73 11.42L160.73 11.42Q160.73 12.55 161.05 13.48Q161.38 14.40 161.99 15.05Q162.60 15.70 163.44 16.06Q164.28 16.42 165.34 16.42L165.34 16.42Q166.37 16.42 167.22 16.04Q168.07 15.67 168.67 15.01Q169.27 14.35 169.60 13.43Q169.92 12.50 169.92 11.38L169.92 11.38Q169.92 10.27 169.60 9.37Q169.27 8.47 168.67 7.82Q168.07 7.18 167.22 6.83Q166.37 6.48 165.34 6.48ZM184.30 17.42L183.02 17.42Q182.64 16.70 182.52 15.80Q182.40 14.90 182.40 14.21L182.40 14.21Q182.40 13.63 182.42 13.13Q182.45 12.62 182.48 12.06Q182.52 11.50 182.56 10.85Q182.59 10.20 182.59 9.36L182.59 9.36Q182.59 7.87 181.92 7.18Q181.25 6.48 179.88 6.48L179.88 6.48Q178.58 6.48 177.70 7.12Q176.81 7.75 175.97 8.90L175.97 8.90L175.97 8.95L175.97 17.42L174.65 17.42L174.65 8.95Q174.65 7.99 174.41 7.30Q174.17 6.60 173.69 6.10L173.69 6.10L174.50 5.30Q175.08 5.71 175.39 6.30Q175.70 6.89 175.82 7.51L175.82 7.51Q176.62 6.36 177.64 5.80Q178.66 5.23 179.88 5.23L179.88 5.23Q181.99 5.23 182.95 6.24Q183.91 7.25 183.91 9.10L183.91 9.10Q183.91 9.96 183.88 10.67Q183.84 11.38 183.80 12Q183.77 12.62 183.74 13.20Q183.72 13.78 183.72 14.35L183.72 14.35Q183.72 15.14 183.84 15.86Q183.96 16.58 184.30 17.42L184.30 17.42ZM191.33 12.62L188.50 12.62Q188.71 14.50 189.68 15.46Q190.66 16.42 192.53 16.42L192.53 16.42Q193.54 16.42 194.45 16.08Q195.36 15.74 196.27 15.26L196.27 15.26L196.90 16.27Q196.06 16.85 194.94 17.26Q193.82 17.66 192.53 17.66L192.53 17.66Q189.82 17.66 188.44 16.07Q187.06 14.47 187.06 11.50L187.06 11.50Q187.06 10.25 187.43 9.12Q187.80 7.99 188.48 7.13Q189.17 6.26 190.13 5.75Q191.09 5.23 192.26 5.23L192.26 5.23Q193.15 5.23 193.94 5.48Q194.74 5.74 195.32 6.20Q195.91 6.67 196.26 7.36Q196.61 8.04 196.61 8.88L196.61 8.88Q196.61 9.94 196.15 10.66Q195.70 11.38 194.96 11.81Q194.23 12.24 193.28 12.43Q192.34 12.62 191.33 12.62L191.33 12.62ZM192.26 6.41L192.26 6.41Q191.40 6.41 190.69 6.84Q189.98 7.27 189.48 7.97Q188.98 8.66 188.70 9.55Q188.42 10.44 188.42 11.38L188.42 11.38L191.33 11.38Q192.55 11.38 193.32 11.15Q194.09 10.92 194.52 10.56Q194.95 10.20 195.10 9.76Q195.24 9.31 195.24 8.88L195.24 8.88Q195.24 7.75 194.41 7.08Q193.58 6.41 192.26 6.41ZM198.94 16.27L199.61 15.26Q200.23 15.67 201.13 16.04Q202.03 16.42 203.18 16.42L203.18 16.42Q203.69 16.42 204.16 16.31Q204.62 16.20 204.98 15.97Q205.34 15.74 205.55 15.36Q205.75 14.98 205.75 14.42L205.75 14.42Q205.75 13.58 205.30 13.10Q204.84 12.62 204.16 12.30Q203.47 11.98 202.68 11.71Q201.89 11.45 201.20 11.03Q200.52 10.61 200.06 9.94Q199.61 9.26 199.61 8.14L199.61 8.14Q199.61 7.56 199.85 7.03Q200.09 6.50 200.54 6.11Q201.00 5.71 201.65 5.47Q202.30 5.23 203.11 5.23L203.11 5.23Q203.83 5.23 204.50 5.27Q205.18 5.30 205.99 5.38L205.99 5.38L205.99 6.62Q204.12 6.48 202.94 6.48L202.94 6.48Q202.01 6.48 201.50 6.98Q201.00 7.49 201.00 8.14L201.00 8.14Q201.00 8.98 201.46 9.44Q201.91 9.91 202.60 10.24Q203.28 10.56 204.07 10.84Q204.86 11.11 205.55 11.53Q206.23 11.95 206.69 12.62Q207.14 13.30 207.14 14.42L207.14 14.42Q207.14 15.31 206.80 15.92Q206.45 16.54 205.86 16.92Q205.27 17.30 204.53 17.48Q203.78 17.66 202.99 17.66L202.99 17.66Q201.79 17.66 200.74 17.26Q199.68 16.85 198.94 16.27L198.94 16.27Z" transform="translate(51, 5.788)"></path></svg>